<?xml version="1.0" encoding="utf-8"?>
<!-- Generator: Adobe Illustrator 24.3.0, SVG Export Plug-In . SVG Version: 6.00 Build 0)  -->
<svg version="1.1" id="Layer_1" xmlns="http://www.w3.org/2000/svg" xmlns:xlink="http://www.w3.org/1999/xlink" x="0px" y="0px"
	 viewBox="0 0 1920 1080" style="enable-background:new 0 0 1920 1080;" xml:space="preserve">
<style type="text/css">
	.st0{fill:#FFFFFF;}
</style>
<g>
	<polygon class="st0" points="830.85,612.77 665.49,505.92 850.88,439.66 901.4,249.37 1021.71,405.22 1218.3,394.46 
		1107.26,557.04 1178.23,740.68 989.3,685.32 836.58,809.57 	"/>
	<path d="M903.64,260.45l112.51,145.75l3.21,4.16l5.25-0.29l183.85-10.06l-103.84,152.04l-2.97,4.34l1.9,4.9l66.38,171.74
		l-176.69-51.78l-5.05-1.48l-4.08,3.32l-142.82,116.2l-5.36-184.04l-0.15-5.26l-4.42-2.85l-154.65-99.92l173.38-61.97l4.95-1.77
		l1.35-5.08L903.64,260.45 M899.17,238.3l-52.45,197.54l-192.46,68.79l171.67,110.92l5.95,204.3l158.54-128.99l196.14,57.48
		l-73.68-190.64l115.27-168.77l-204.08,11.16L899.17,238.3L899.17,238.3z"/>
</g>
</svg>
