<?xml version="1.0" encoding="UTF-8" standalone="no"?>
<svg width="182px" height="51px" viewBox="0 0 182 51" version="1.1" xmlns="http://www.w3.org/2000/svg" xmlns:xlink="http://www.w3.org/1999/xlink">
    <!-- Generator: Sketch 39.1 (31720) - http://www.bohemiancoding.com/sketch -->
    <title>Slice 1</title>
    <desc>Created with Sketch.</desc>
    <defs></defs>
    <g id="Page-1" stroke="none" stroke-width="1" fill="none" fill-rule="evenodd">
        <g id="Met_RGB_Horisontal" fill="#0090A8">
            <path d="M15.6423009,3.12228084 C8.46654867,3.12228084 2.62902655,8.95908929 2.62902655,16.1323864 C2.62902655,23.307276 8.46654867,29.1431997 15.6423009,29.1431997 C22.819823,29.1431997 28.6587611,23.307276 28.6587611,16.1323864 C28.6587611,8.95908929 22.819823,3.12228084 15.6423009,3.12228084 L15.6423009,3.12228084 Z M15.6423009,31.4470633 C7.19876106,31.4470633 0.327964602,24.5754627 0.327964602,16.1323864 C0.327964602,7.6909026 7.19876106,0.820186688 15.6423009,0.820186688 C24.0883186,0.820186688 30.9584071,7.6909026 30.9584071,16.1323864 C30.9584071,24.5754627 24.0883186,31.4470633 15.6423009,31.4470633 L15.6423009,31.4470633 Z" id="Fill-1"></path>
            <polyline id="Fill-2" points="24.7819469 50.8858685 18.7895575 44.8975925 12.7961062 50.8858685 6.80230088 44.8975925 1.56283186 50.1326006 0.0561061947 48.6280114 6.80230088 41.888237 12.7961062 47.8738588 18.7895575 41.888237 24.780177 47.8738588 30.0132743 42.6388506 31.5212389 44.146625 24.7819469 50.8858685"></polyline>
            <polyline id="Fill-3" points="58.700177 8.20369805 60.8619469 8.20369805 60.8619469 22.339724 58.719646 22.339724 58.719646 12.5261851 55.8118584 18.5445422 54.0336283 18.5445422 51.1238938 12.5261851 51.1238938 22.339724 48.9847788 22.339724 48.9847788 8.20369805 51.1465487 8.20369805 54.9233628 16.0191396 58.700177 8.20369805"></polyline>
            <path d="M66.2084956,15.9382744 L66.2084956,15.9593312 L70.6518584,15.9593312 L70.6518584,15.9382744 C70.6325664,14.4239529 69.7230088,13.6763474 68.4316814,13.6763474 C67.1178761,13.6763474 66.2084956,14.4239529 66.2084956,15.9382744 L66.2084956,15.9382744 Z M70.5516814,19.0283182 L72.7134513,19.0283182 C72.3509735,21.7961396 70.1081416,22.5435682 68.4316814,22.5435682 C66.6130973,22.5435682 64.0888496,21.6538734 64.0888496,18.2207273 L64.0888496,15.9593312 C64.0888496,12.5261851 66.6130973,11.6366672 68.4316814,11.6366672 C70.2490265,11.6366672 72.7734513,12.5261851 72.7734513,15.9593312 L72.7734513,17.8358653 L66.2084956,17.8358653 L66.2084956,18.1805601 C66.2084956,19.754513 67.1178761,20.5019416 68.4316814,20.5019416 C69.480354,20.5019416 70.2700885,20.0183425 70.5516814,19.0283182 L70.5516814,19.0283182 Z" id="Fill-4"></path>
            <path d="M78.6877876,19.3114351 C78.6877876,20.078151 78.8302655,20.3012825 79.6569912,20.3012825 L81.2523894,20.3012825 L81.2523894,22.339724 L79.0502655,22.339724 C77.3138053,22.339724 76.5663717,21.4921429 76.5663717,19.856612 L76.5663717,13.9191201 L75.0922124,13.9191201 L75.0922124,11.9196071 L76.5663717,11.9196071 L76.5663717,9.55770455 L78.6877876,9.55770455 L78.6877876,11.9196071 L81.2523894,11.9196071 L81.2523894,13.9191201 L78.6877876,13.9191201 L78.6877876,19.3114351" id="Fill-5"></path>
            <path d="M86.0506195,15.9382744 L86.0506195,15.9593312 L90.4946903,15.9593312 L90.4946903,15.9382744 C90.4753982,14.4239529 89.5656637,13.6763474 88.2738053,13.6763474 C86.959823,13.6763474 86.0506195,14.4239529 86.0506195,15.9382744 L86.0506195,15.9382744 Z M90.3945133,19.0283182 L92.5559292,19.0283182 C92.1938053,21.7961396 89.9509735,22.5435682 88.2738053,22.5435682 C86.4548673,22.5435682 83.9306195,21.6538734 83.9306195,18.2207273 L83.9306195,15.9593312 C83.9306195,12.5261851 86.4548673,11.6366672 88.2738053,11.6366672 C90.0934513,11.6366672 92.6180531,12.5261851 92.6180531,15.9593312 L92.6180531,17.8358653 L86.0506195,17.8358653 L86.0506195,18.1805601 C86.0506195,19.754513 86.959823,20.5019416 88.2738053,20.5019416 C89.3230088,20.5019416 90.1127434,20.0183425 90.3945133,19.0283182 L90.3945133,19.0283182 Z" id="Fill-6"></path>
            <path d="M102.106549,15.9980828 C102.106549,14.4239529 101.197522,13.6763474 99.8835398,13.6763474 C98.5727434,13.6763474 97.6631858,14.4239529 97.6631858,15.9980828 L97.6631858,18.1805601 C97.6631858,19.754513 98.5727434,20.5019416 99.8835398,20.5019416 C101.197522,20.5019416 102.106549,19.754513 102.106549,18.1805601 L102.106549,15.9980828 L102.106549,15.9980828 Z M95.539823,15.9593312 C95.539823,12.5261851 98.0647788,11.6366672 99.8835398,11.6366672 C101.702124,11.6366672 104.226372,12.5261851 104.226372,15.9593312 L104.226372,18.2207273 C104.226372,21.6538734 101.702124,22.5435682 99.8835398,22.5435682 C98.0647788,22.5435682 95.539823,21.6538734 95.539823,18.2207273 L95.539823,15.9593312 L95.539823,15.9593312 Z" id="Fill-7"></path>
            <path d="M111.553628,13.7980877 C110.242832,13.7980877 109.333628,14.5242825 109.333628,16.0985893 L109.333628,22.339724 L107.213805,22.339724 L107.213805,11.9196071 L109.333628,11.9196071 L109.333628,12.9290958 C109.63469,12.3225179 110.666903,11.7368198 111.757345,11.7368198 L112.566726,11.7368198 L112.566726,13.7980877 L111.553628,13.7980877" id="Fill-8"></path>
            <path d="M121.307965,15.9980828 C121.307965,14.4239529 120.398584,13.6763474 119.087965,13.6763474 C117.773628,13.6763474 116.864425,14.4239529 116.864425,15.9980828 L116.864425,18.1805601 C116.864425,19.754513 117.773628,20.5019416 119.087965,20.5019416 C120.398584,20.5019416 121.307965,19.754513 121.307965,18.1805601 L121.307965,15.9980828 L121.307965,15.9980828 Z M114.744602,15.9593312 C114.744602,12.5261851 117.26885,11.6366672 119.087965,11.6366672 C120.903363,11.6366672 123.431327,12.5261851 123.431327,15.9593312 L123.431327,18.2207273 C123.431327,21.6538734 120.903363,22.5435682 119.087965,22.5435682 C117.26885,22.5435682 114.744602,21.6538734 114.744602,18.2207273 L114.744602,15.9593312 L114.744602,15.9593312 Z" id="Fill-9"></path>
            <path d="M128.615398,19.3114351 C128.615398,20.078151 128.757876,20.3012825 129.586195,20.3012825 L129.910265,20.3012825 L129.910265,22.339724 L128.981416,22.339724 C127.243186,22.339724 126.495752,21.4921429 126.495752,19.856612 L126.495752,8.20369805 L128.615398,8.20369805 L128.615398,19.3114351" id="Fill-10"></path>
            <path d="M139.097876,15.9980828 C139.097876,14.4239529 138.18885,13.6763474 136.874513,13.6763474 C135.564071,13.6763474 134.654513,14.4239529 134.654513,15.9980828 L134.654513,18.1805601 C134.654513,19.754513 135.564071,20.5019416 136.874513,20.5019416 C138.18885,20.5019416 139.097876,19.754513 139.097876,18.1805601 L139.097876,15.9980828 L139.097876,15.9980828 Z M132.531504,15.9593312 C132.531504,12.5261851 135.055752,11.6366672 136.874513,11.6366672 C138.693451,11.6366672 141.217876,12.5261851 141.217876,15.9593312 L141.217876,18.2207273 C141.217876,21.6538734 138.693451,22.5435682 136.874513,22.5435682 C135.055752,22.5435682 132.531504,21.6538734 132.531504,18.2207273 L132.531504,15.9593312 L132.531504,15.9593312 Z" id="Fill-11"></path>
            <path d="M156.138053,22.339724 L158.256637,22.339724 L158.256637,11.9196071 L156.138053,11.9196071 L156.138053,22.339724 Z M156.138053,10.3649416 L158.256637,10.3649416 L158.256637,8.20369805 L156.138053,8.20369805 L156.138053,10.3649416 Z" id="Fill-12"></path>
            <path d="M161.123894,19.0072614 L163.306195,19.0072614 C163.467257,20.0376299 164.458407,20.5019416 165.59115,20.5019416 C166.518584,20.5019416 167.306195,20.2593458 167.306195,19.4115877 C167.306195,18.7062727 166.677876,18.4831412 165.99115,18.3212338 L164.014159,17.8165779 C162.638938,17.4736526 161.368142,16.7067597 161.368142,14.7072468 C161.368142,12.6461558 163.024779,11.6366672 165.143363,11.6366672 C167.387611,11.6366672 168.943363,12.6461558 169.143363,14.9675373 L166.920354,14.9675373 C166.759292,14.0599708 165.971681,13.6763474 165.00177,13.6763474 C164.357522,13.6763474 163.509735,13.9191201 163.509735,14.7475909 C163.509735,15.3736331 164.115044,15.5758847 164.681416,15.7149659 L166.59646,16.2003344 C168.497345,16.6857029 169.447788,17.4929399 169.447788,19.4731656 C169.424779,21.532487 167.830088,22.5435682 165.568142,22.5435682 C163.162832,22.5435682 161.247788,21.3918133 161.123894,19.0072614" id="Fill-13"></path>
            <polyline id="Fill-14" points="174.313274 16.1598133 178.20885 11.9196071 180.775221 11.9196071 177.017699 15.9980828 181.341593 22.339724 178.876106 22.339724 175.60354 17.533461 174.313274 18.947276 174.313274 22.339724 172.189381 22.339724 172.189381 8.20369805 174.313274 8.20369805 174.313274 16.1598133"></polyline>
            <path d="M48.8828319,43.175888 L51.0040708,43.175888 L51.0040708,32.7541786 L48.8828319,32.7541786 L48.8828319,43.175888 Z M48.8828319,31.1980974 L51.0040708,31.1980974 L51.0040708,29.039862 L48.8828319,29.039862 L48.8828319,31.1980974 Z" id="Fill-15"></path>
            <path d="M56.6336283,43.175888 L54.5123894,43.175888 L54.5123894,32.7541786 L56.6336283,32.7541786 L56.6336283,33.6635146 C56.9364602,33.0583523 57.9669027,32.4726542 59.0561062,32.4726542 C60.8555752,32.4726542 63.1987611,33.5822955 63.1987611,36.7954951 L63.1987611,43.175888 L61.0771681,43.175888 L61.0771681,36.8340698 C61.0771681,35.2585244 60.1695575,34.5303831 58.8555752,34.5303831 C57.5414159,34.5303831 56.6336283,35.2585244 56.6336283,36.8340698 L56.6336283,43.175888" id="Fill-16"></path>
            <path d="M79.859292,40.1472451 C79.859292,40.9144919 80,41.1340844 80.8286726,41.1340844 L82.4258407,41.1340844 L82.4258407,43.175888 L80.2217699,43.175888 C78.4854867,43.175888 77.7378761,42.3279529 77.7378761,40.6908295 L77.7378761,34.7536916 L76.2638938,34.7536916 L76.2638938,32.7541786 L77.7378761,32.7541786 L77.7378761,30.392276 L79.859292,30.392276 L79.859292,32.7541786 L82.4258407,32.7541786 L82.4258407,34.7536916 L79.859292,34.7536916 L79.859292,40.1472451 L79.859292,40.1472451 Z M65.88,39.8432484 L68.0630088,39.8432484 C68.2249558,40.8720244 69.2134513,41.3382825 70.3444248,41.3382825 C71.2732743,41.3382825 72.0612389,41.0955097 72.0612389,40.2479286 C72.0612389,39.5390747 71.4350442,39.3193052 70.7490265,39.1572208 L68.7683186,38.6525649 C67.3961062,38.3096396 66.1228319,37.5427468 66.1228319,35.5398718 C66.1228319,33.4821429 67.7780531,32.4726542 69.9010619,32.4726542 C72.1423009,32.4726542 73.6975221,33.4821429 73.899646,35.8052938 L71.6780531,35.8052938 C71.5161062,34.8959578 70.7295575,34.5110958 69.7589381,34.5110958 C69.1113274,34.5110958 68.2635398,34.7536916 68.2635398,35.5821623 C68.2635398,36.2064351 68.8702655,36.4104562 69.4352212,36.5527224 L71.3543363,37.0350828 C73.2539823,37.5200974 74.2023009,38.3291039 74.2023009,40.3057906 C74.1826549,42.3670584 72.5872566,43.376724 70.3251327,43.376724 C67.920354,43.376724 66.0014159,42.2279773 65.88,39.8432484 L65.88,39.8432484 Z" id="Fill-17"></path>
            <path d="M85.3677876,43.175888 L87.4872566,43.175888 L87.4872566,32.7541786 L85.3677876,32.7541786 L85.3677876,43.175888 Z M85.3677876,31.1980974 L87.4872566,31.1980974 L87.4872566,29.039862 L85.3677876,29.039862 L85.3677876,31.1980974 Z" id="Fill-18"></path>
            <path d="M93.9511504,40.1472451 C93.9511504,40.9144919 94.0902655,41.1340844 94.9184071,41.1340844 L96.5145133,41.1340844 L96.5145133,43.175888 L94.3134513,43.175888 C92.5755752,43.175888 91.8283186,42.3279529 91.8283186,40.6908295 L91.8283186,34.7536916 L90.3522124,34.7536916 L90.3522124,32.7541786 L91.8283186,32.7541786 L91.8283186,30.392276 L93.9511504,30.392276 L93.9511504,32.7541786 L96.5145133,32.7541786 L96.5145133,34.7536916 L93.9511504,34.7536916 L93.9511504,40.1472451" id="Fill-19"></path>
            <path d="M101.521062,39.0151315 C101.521062,40.5905 102.430088,41.3186412 103.682655,41.3186412 C104.935221,41.3186412 105.844956,40.5905 105.844956,39.0151315 L105.844956,32.7541786 L107.964602,32.7541786 L107.964602,43.175888 L105.844956,43.175888 L105.844956,42.1858636 C105.540354,42.790849 104.511327,43.376724 103.420708,43.376724 C101.624602,43.376724 99.4010619,42.1241088 99.4010619,39.0568912 L99.4010619,32.7541786 L101.521062,32.7541786 L101.521062,39.0151315" id="Fill-20"></path>
            <path d="M122.243186,40.1472451 C122.243186,40.9144919 122.385487,41.1340844 123.214159,41.1340844 L124.809558,41.1340844 L124.809558,43.175888 L122.605487,43.175888 C120.870973,43.175888 120.123363,42.3279529 120.123363,40.6908295 L120.123363,34.7536916 L118.647611,34.7536916 L118.647611,32.7541786 L120.123363,32.7541786 L120.123363,30.392276 L122.243186,30.392276 L122.243186,32.7541786 L124.809558,32.7541786 L124.809558,34.7536916 L122.243186,34.7536916 L122.243186,40.1472451 L122.243186,40.1472451 Z M114.081416,40.1472451 C114.081416,40.9144919 114.223186,41.1340844 115.052389,41.1340844 L116.647788,41.1340844 L116.647788,43.175888 L114.44708,43.175888 C112.70885,43.175888 111.961416,42.3279529 111.961416,40.6908295 L111.961416,34.7536916 L110.48531,34.7536916 L110.48531,32.7541786 L111.961416,32.7541786 L111.961416,30.392276 L114.081416,30.392276 L114.081416,32.7541786 L116.647788,32.7541786 L116.647788,34.7536916 L114.081416,34.7536916 L114.081416,40.1472451 L114.081416,40.1472451 Z" id="Fill-21"></path>
            <path d="M146.101593,17.5738052 C146.101593,19.1493506 147.010619,19.8758994 148.324956,19.8758994 C149.635398,19.8758994 150.545133,19.1493506 150.545133,17.5738052 L150.545133,15.9980828 C150.545133,14.4239529 149.635398,13.6975812 148.324956,13.6975812 C147.010619,13.6975812 146.101593,14.4239529 146.101593,15.9980828 L146.101593,17.5738052 L146.101593,17.5738052 Z M150.545133,21.8964692 L150.545133,20.7447143 C150.244248,21.3512922 149.210619,21.9353977 148.121062,21.9353977 C146.324602,21.9353977 143.981593,20.8255795 143.981593,17.6141494 L143.981593,15.9593312 C143.981593,12.7463084 146.324602,11.6366672 148.121062,11.6366672 C149.210619,11.6366672 150.244248,12.2221883 150.545133,12.8287662 L150.545133,11.9196071 L152.667257,11.9196071 L152.667257,21.9353977 C152.667257,25.3697825 150.139823,26.2580617 148.324956,26.2580617 C146.606195,26.2580617 144.305133,25.4717045 144.020531,22.5435682 L146.162832,22.5435682 C146.386195,23.6744432 147.215044,24.2180276 148.324956,24.2180276 C149.635398,24.2180276 150.545133,23.470599 150.545133,21.8964692 L150.545133,21.8964692 Z" id="Fill-22"></path>
        </g>
    </g>
</svg>