<svg xmlns="http://www.w3.org/2000/svg" xmlns:xlink="http://www.w3.org/1999/xlink" width="512" height="512" viewBox="0 0 512 512">
  <defs>
    <clipPath id="clip-favicon">
      <rect width="512" height="512"/>
    </clipPath>
  </defs>
  <g id="favicon" clip-path="url(#clip-favicon)">
    <g id="Group_1" data-name="Group 1" transform="translate(-150.872 -134.91)">
      <path id="Path_6" data-name="Path 6" d="M.81,1.9V211.784c.362,99.1,79,221.148,204.407,291.833,125.455-70.685,204.1-192.73,204.2-291.833V1.9Z" transform="translate(201.375 138.125)" fill="#fff"/>
      <path id="Path_7" data-name="Path 7" d="M0,.91.258,215.083C.362,316.2,80.606,440.572,208.593,512.91,336.58,440.572,416.824,316.2,416.978,215.083V.91ZM208.593,418.1c-38.8,0-70.22-7.441-70.22-10.334s31.415-10.334,70.22-10.334,70.427,7.957,70.427,10.592S247.4,418.1,208.593,418.1Zm0-53.892c-59.576,0-107.939-10.851-107.939-15.5s48.363-15.5,107.939-15.5,107.939,10.851,107.939,15.5S268.22,364.2,208.593,364.2Zm0-62.676c-73.165,0-132.482-13.383-132.482-18.963S135.428,263.6,208.593,263.6s132.431,13.383,132.431,18.963S281.809,301.527,208.593,301.527Zm137.6-80.812c-16.173,3.255-76.627,8.267-137.649,8.267s-121.993-5.167-137.6-8.267a1.4,1.4,0,0,1-1.5-1.808A396.931,396.931,0,0,1,206.681,39.4a3.255,3.255,0,0,1,3.824,0,396.568,396.568,0,0,1,137.236,179.5C348.1,219.888,347.275,220.508,346.19,220.715Z" transform="translate(198 134)" fill="#231f20"/>
    </g>
  </g>
</svg>
